<svg xmlns="http://www.w3.org/2000/svg" width="1100" height="620" viewBox="0 0 1100 620">
<rect width="100%" height="100%" fill="white"/>
<text x="550" y="35" text-anchor="middle" font-size="22" font-family="Arial">Mahalanobis distance from real-data feature distribution</text>
<line x1="90" y1="440" x2="1070" y2="440" stroke="#333"/>
<line x1="90" y1="70" x2="90" y2="440" stroke="#333"/>
<line x1="85" y1="440.00" x2="1070" y2="440.00" stroke="#ddd"/>
<text x="80" y="444.00" text-anchor="end" font-size="12" font-family="Arial">0.00</text>
<line x1="85" y1="366.00" x2="1070" y2="366.00" stroke="#ddd"/>
<text x="80" y="370.00" text-anchor="end" font-size="12" font-family="Arial">4.58</text>
<line x1="85" y1="292.00" x2="1070" y2="292.00" stroke="#ddd"/>
<text x="80" y="296.00" text-anchor="end" font-size="12" font-family="Arial">9.16</text>
<line x1="85" y1="218.00" x2="1070" y2="218.00" stroke="#ddd"/>
<text x="80" y="222.00" text-anchor="end" font-size="12" font-family="Arial">13.74</text>
<line x1="85" y1="144.00" x2="1070" y2="144.00" stroke="#ddd"/>
<text x="80" y="148.00" text-anchor="end" font-size="12" font-family="Arial">18.32</text>
<line x1="85" y1="70.00" x2="1070" y2="70.00" stroke="#ddd"/>
<text x="80" y="74.00" text-anchor="end" font-size="12" font-family="Arial">22.89</text>
<rect x="90.00" y="70.00" width="78.18" height="370.00" fill="#1f77b4"/>
<text x="129.09" y="64.00" text-anchor="middle" font-size="11" font-family="Arial">22.89</text>
<text x="129.09" y="458.00" transform="rotate(45 129.09 458.00)" font-size="12" font-family="Arial">mask8_garch.csv</text>
<rect x="180.18" y="291.48" width="78.18" height="148.52" fill="#1f77b4"/>
<text x="219.27" y="285.48" text-anchor="middle" font-size="11" font-family="Arial">9.19</text>
<text x="219.27" y="458.00" transform="rotate(45 219.27 458.00)" font-size="12" font-family="Arial">mask7_garch.csv</text>
<rect x="270.36" y="306.98" width="78.18" height="133.02" fill="#1f77b4"/>
<text x="309.45" y="300.98" text-anchor="middle" font-size="11" font-family="Arial">8.23</text>
<text x="309.45" y="458.00" transform="rotate(45 309.45 458.00)" font-size="12" font-family="Arial">mask1_garch.csv</text>
<rect x="360.55" y="308.39" width="78.18" height="131.61" fill="#1f77b4"/>
<text x="399.64" y="302.39" text-anchor="middle" font-size="11" font-family="Arial">8.14</text>
<text x="399.64" y="458.00" transform="rotate(45 399.64 458.00)" font-size="12" font-family="Arial">mask4_garch.csv</text>
<rect x="450.73" y="310.74" width="78.18" height="129.26" fill="#1f77b4"/>
<text x="489.82" y="304.74" text-anchor="middle" font-size="11" font-family="Arial">8.00</text>
<text x="489.82" y="458.00" transform="rotate(45 489.82 458.00)" font-size="12" font-family="Arial">mask9_garch.csv</text>
<rect x="540.91" y="326.10" width="78.18" height="113.90" fill="#1f77b4"/>
<text x="580.00" y="320.10" text-anchor="middle" font-size="11" font-family="Arial">7.05</text>
<text x="580.00" y="458.00" transform="rotate(45 580.00 458.00)" font-size="12" font-family="Arial">mask10_garch.csv</text>
<rect x="631.09" y="330.73" width="78.18" height="109.27" fill="#1f77b4"/>
<text x="670.18" y="324.73" text-anchor="middle" font-size="11" font-family="Arial">6.76</text>
<text x="670.18" y="458.00" transform="rotate(45 670.18 458.00)" font-size="12" font-family="Arial">mask5_garch.csv</text>
<rect x="721.27" y="335.73" width="78.18" height="104.27" fill="#1f77b4"/>
<text x="760.36" y="329.73" text-anchor="middle" font-size="11" font-family="Arial">6.45</text>
<text x="760.36" y="458.00" transform="rotate(45 760.36 458.00)" font-size="12" font-family="Arial">mask3_garch.csv</text>
<rect x="811.45" y="349.03" width="78.18" height="90.97" fill="#1f77b4"/>
<text x="850.55" y="343.03" text-anchor="middle" font-size="11" font-family="Arial">5.63</text>
<text x="850.55" y="458.00" transform="rotate(45 850.55 458.00)" font-size="12" font-family="Arial">mask6_garch.csv</text>
<rect x="901.64" y="367.66" width="78.18" height="72.34" fill="#1f77b4"/>
<text x="940.73" y="361.66" text-anchor="middle" font-size="11" font-family="Arial">4.48</text>
<text x="940.73" y="458.00" transform="rotate(45 940.73 458.00)" font-size="12" font-family="Arial">mask2_garch.csv</text>
<rect x="991.82" y="375.06" width="78.18" height="64.94" fill="#1f77b4"/>
<text x="1030.91" y="369.06" text-anchor="middle" font-size="11" font-family="Arial">4.02</text>
<text x="1030.91" y="458.00" transform="rotate(45 1030.91 458.00)" font-size="12" font-family="Arial">mask11_garch.csv</text>
<text x="22" y="255.00" transform="rotate(-90 22 255.00)" text-anchor="middle" font-size="14" font-family="Arial">Mahalanobis distance</text>
</svg>