<svg xmlns="http://www.w3.org/2000/svg" width="1100" height="620" viewBox="0 0 1100 620">
<rect width="100%" height="100%" fill="white"/>
<text x="550" y="35" text-anchor="middle" font-size="22" font-family="Arial">Mahalanobis distance from real-data feature distribution</text>
<line x1="90" y1="440" x2="1070" y2="440" stroke="#333"/>
<line x1="90" y1="70" x2="90" y2="440" stroke="#333"/>
<line x1="85" y1="440.00" x2="1070" y2="440.00" stroke="#ddd"/>
<text x="80" y="444.00" text-anchor="end" font-size="12" font-family="Arial">0.00</text>
<line x1="85" y1="366.00" x2="1070" y2="366.00" stroke="#ddd"/>
<text x="80" y="370.00" text-anchor="end" font-size="12" font-family="Arial">2.67</text>
<line x1="85" y1="292.00" x2="1070" y2="292.00" stroke="#ddd"/>
<text x="80" y="296.00" text-anchor="end" font-size="12" font-family="Arial">5.34</text>
<line x1="85" y1="218.00" x2="1070" y2="218.00" stroke="#ddd"/>
<text x="80" y="222.00" text-anchor="end" font-size="12" font-family="Arial">8.01</text>
<line x1="85" y1="144.00" x2="1070" y2="144.00" stroke="#ddd"/>
<text x="80" y="148.00" text-anchor="end" font-size="12" font-family="Arial">10.69</text>
<line x1="85" y1="70.00" x2="1070" y2="70.00" stroke="#ddd"/>
<text x="80" y="74.00" text-anchor="end" font-size="12" font-family="Arial">13.36</text>
<rect x="90.00" y="70.00" width="87.20" height="370.00" fill="#9467bd"/>
<text x="133.60" y="64.00" text-anchor="middle" font-size="11" font-family="Arial">13.36</text>
<text x="133.60" y="458.00" transform="rotate(45 133.60 458.00)" font-size="12" font-family="Arial">mask4_sabr.csv</text>
<rect x="189.20" y="77.07" width="87.20" height="362.93" fill="#9467bd"/>
<text x="232.80" y="71.07" text-anchor="middle" font-size="11" font-family="Arial">13.10</text>
<text x="232.80" y="458.00" transform="rotate(45 232.80 458.00)" font-size="12" font-family="Arial">mask3_sabr.csv</text>
<rect x="288.40" y="131.19" width="87.20" height="308.81" fill="#9467bd"/>
<text x="332.00" y="125.19" text-anchor="middle" font-size="11" font-family="Arial">11.15</text>
<text x="332.00" y="458.00" transform="rotate(45 332.00 458.00)" font-size="12" font-family="Arial">mask1_sabr.csv</text>
<rect x="387.60" y="159.07" width="87.20" height="280.93" fill="#1f77b4"/>
<text x="431.20" y="153.07" text-anchor="middle" font-size="11" font-family="Arial">10.14</text>
<text x="431.20" y="458.00" transform="rotate(45 431.20 458.00)" font-size="12" font-family="Arial">mask5_brown.csv</text>
<rect x="486.80" y="179.48" width="87.20" height="260.52" fill="#1f77b4"/>
<text x="530.40" y="173.48" text-anchor="middle" font-size="11" font-family="Arial">9.41</text>
<text x="530.40" y="458.00" transform="rotate(45 530.40 458.00)" font-size="12" font-family="Arial">mask1_brown.csv</text>
<rect x="586.00" y="190.65" width="87.20" height="249.35" fill="#1f77b4"/>
<text x="629.60" y="184.65" text-anchor="middle" font-size="11" font-family="Arial">9.00</text>
<text x="629.60" y="458.00" transform="rotate(45 629.60 458.00)" font-size="12" font-family="Arial">mask3_brown.csv</text>
<rect x="685.20" y="302.43" width="87.20" height="137.57" fill="#9467bd"/>
<text x="728.80" y="296.43" text-anchor="middle" font-size="11" font-family="Arial">4.97</text>
<text x="728.80" y="458.00" transform="rotate(45 728.80 458.00)" font-size="12" font-family="Arial">mask5_sabr.csv</text>
<rect x="784.40" y="307.19" width="87.20" height="132.81" fill="#9467bd"/>
<text x="828.00" y="301.19" text-anchor="middle" font-size="11" font-family="Arial">4.79</text>
<text x="828.00" y="458.00" transform="rotate(45 828.00 458.00)" font-size="12" font-family="Arial">mask2_sabr.csv</text>
<rect x="883.60" y="328.28" width="87.20" height="111.72" fill="#1f77b4"/>
<text x="927.20" y="322.28" text-anchor="middle" font-size="11" font-family="Arial">4.03</text>
<text x="927.20" y="458.00" transform="rotate(45 927.20 458.00)" font-size="12" font-family="Arial">mask4_brown.csv</text>
<rect x="982.80" y="328.70" width="87.20" height="111.30" fill="#1f77b4"/>
<text x="1026.40" y="322.70" text-anchor="middle" font-size="11" font-family="Arial">4.02</text>
<text x="1026.40" y="458.00" transform="rotate(45 1026.40 458.00)" font-size="12" font-family="Arial">mask2_brown.csv</text>
<text x="22" y="255.00" transform="rotate(-90 22 255.00)" text-anchor="middle" font-size="14" font-family="Arial">Mahalanobis distance</text>
</svg>