<svg xmlns="http://www.w3.org/2000/svg" width="1200" height="680" viewBox="0 0 1200 680">
<rect width="100%" height="100%" fill="white"/>
<text x="600" y="35" text-anchor="middle" font-size="22" font-family="Arial">each_mask positions in real-window Mahalanobis distance distribution</text>
<line x1="90" y1="600" x2="980" y2="600" stroke="#333"/>
<line x1="90" y1="70" x2="90" y2="600" stroke="#333"/>
<line x1="85" y1="600.00" x2="980" y2="600.00" stroke="#ddd"/>
<text x="80" y="604.00" text-anchor="end" font-size="12" font-family="Arial">0</text>
<line x1="85" y1="494.00" x2="980" y2="494.00" stroke="#ddd"/>
<text x="80" y="498.00" text-anchor="end" font-size="12" font-family="Arial">11</text>
<line x1="85" y1="388.00" x2="980" y2="388.00" stroke="#ddd"/>
<text x="80" y="392.00" text-anchor="end" font-size="12" font-family="Arial">22</text>
<line x1="85" y1="282.00" x2="980" y2="282.00" stroke="#ddd"/>
<text x="80" y="286.00" text-anchor="end" font-size="12" font-family="Arial">34</text>
<line x1="85" y1="176.00" x2="980" y2="176.00" stroke="#ddd"/>
<text x="80" y="180.00" text-anchor="end" font-size="12" font-family="Arial">45</text>
<line x1="85" y1="70.00" x2="980" y2="70.00" stroke="#ddd"/>
<text x="80" y="74.00" text-anchor="end" font-size="12" font-family="Arial">56</text>
<rect x="90.00" y="600.00" width="46.44" height="0.00" fill="#d9d9d9" stroke="#999"/>
<rect x="139.44" y="600.00" width="46.44" height="0.00" fill="#d9d9d9" stroke="#999"/>
<rect x="188.89" y="600.00" width="46.44" height="0.00" fill="#d9d9d9" stroke="#999"/>
<rect x="238.33" y="600.00" width="46.44" height="0.00" fill="#d9d9d9" stroke="#999"/>
<rect x="287.78" y="505.36" width="46.44" height="94.64" fill="#d9d9d9" stroke="#999"/>
<rect x="337.22" y="70.00" width="46.44" height="530.00" fill="#d9d9d9" stroke="#999"/>
<rect x="386.67" y="316.07" width="46.44" height="283.93" fill="#d9d9d9" stroke="#999"/>
<rect x="436.11" y="543.21" width="46.44" height="56.79" fill="#d9d9d9" stroke="#999"/>
<rect x="485.56" y="581.07" width="46.44" height="18.93" fill="#d9d9d9" stroke="#999"/>
<rect x="535.00" y="571.61" width="46.44" height="28.39" fill="#d9d9d9" stroke="#999"/>
<rect x="584.44" y="600.00" width="46.44" height="0.00" fill="#d9d9d9" stroke="#999"/>
<rect x="633.89" y="600.00" width="46.44" height="0.00" fill="#d9d9d9" stroke="#999"/>
<rect x="683.33" y="600.00" width="46.44" height="0.00" fill="#d9d9d9" stroke="#999"/>
<rect x="732.78" y="600.00" width="46.44" height="0.00" fill="#d9d9d9" stroke="#999"/>
<rect x="782.22" y="600.00" width="46.44" height="0.00" fill="#d9d9d9" stroke="#999"/>
<rect x="831.67" y="600.00" width="46.44" height="0.00" fill="#d9d9d9" stroke="#999"/>
<rect x="881.11" y="600.00" width="46.44" height="0.00" fill="#d9d9d9" stroke="#999"/>
<rect x="930.56" y="600.00" width="46.44" height="0.00" fill="#d9d9d9" stroke="#999"/>
<line x1="90.00" y1="600" x2="90.00" y2="605" stroke="#333"/>
<text x="90.00" y="622" text-anchor="middle" font-size="12" font-family="Arial">0.0</text>
<line x1="268.00" y1="600" x2="268.00" y2="605" stroke="#333"/>
<text x="268.00" y="622" text-anchor="middle" font-size="12" font-family="Arial">2.7</text>
<line x1="446.00" y1="600" x2="446.00" y2="605" stroke="#333"/>
<text x="446.00" y="622" text-anchor="middle" font-size="12" font-family="Arial">5.3</text>
<line x1="624.00" y1="600" x2="624.00" y2="605" stroke="#333"/>
<text x="624.00" y="622" text-anchor="middle" font-size="12" font-family="Arial">8.0</text>
<line x1="802.00" y1="600" x2="802.00" y2="605" stroke="#333"/>
<text x="802.00" y="622" text-anchor="middle" font-size="12" font-family="Arial">10.7</text>
<line x1="980.00" y1="600" x2="980.00" y2="605" stroke="#333"/>
<text x="980.00" y="622" text-anchor="middle" font-size="12" font-family="Arial">13.4</text>
<line x1="357.71" y1="70" x2="357.71" y2="600" stroke="#1f77b4" stroke-width="2"/>
<circle cx="357.71" cy="634" r="5" fill="#1f77b4"/>
<text x="998" y="90.00" font-size="12" font-family="Arial" fill="#1f77b4">mask2_brown.csv: D=4.02, pct=36.4</text>
<line x1="358.72" y1="70" x2="358.72" y2="600" stroke="#1f77b4" stroke-width="2"/>
<circle cx="358.72" cy="634" r="5" fill="#1f77b4"/>
<text x="998" y="112.00" font-size="12" font-family="Arial" fill="#1f77b4">mask4_brown.csv: D=4.03, pct=38.3</text>
<line x1="409.45" y1="70" x2="409.45" y2="600" stroke="#9467bd" stroke-width="2"/>
<circle cx="409.45" cy="634" r="5" fill="#9467bd"/>
<text x="998" y="134.00" font-size="12" font-family="Arial" fill="#9467bd">mask2_sabr.csv: D=4.79, pct=78.5</text>
<line x1="420.90" y1="70" x2="420.90" y2="600" stroke="#9467bd" stroke-width="2"/>
<circle cx="420.90" cy="634" r="5" fill="#9467bd"/>
<text x="998" y="156.00" font-size="12" font-family="Arial" fill="#9467bd">mask5_sabr.csv: D=4.97, pct=84.1</text>
<line x1="689.79" y1="70" x2="689.79" y2="600" stroke="#1f77b4" stroke-width="2"/>
<circle cx="689.79" cy="634" r="5" fill="#1f77b4"/>
<text x="998" y="178.00" font-size="12" font-family="Arial" fill="#1f77b4">mask3_brown.csv: D=9.00, pct=100.0</text>
<line x1="716.65" y1="70" x2="716.65" y2="600" stroke="#1f77b4" stroke-width="2"/>
<circle cx="716.65" cy="634" r="5" fill="#1f77b4"/>
<text x="998" y="200.00" font-size="12" font-family="Arial" fill="#1f77b4">mask1_brown.csv: D=9.41, pct=100.0</text>
<line x1="765.76" y1="70" x2="765.76" y2="600" stroke="#1f77b4" stroke-width="2"/>
<circle cx="765.76" cy="634" r="5" fill="#1f77b4"/>
<text x="998" y="222.00" font-size="12" font-family="Arial" fill="#1f77b4">mask5_brown.csv: D=10.14, pct=100.0</text>
<line x1="832.80" y1="70" x2="832.80" y2="600" stroke="#9467bd" stroke-width="2"/>
<circle cx="832.80" cy="634" r="5" fill="#9467bd"/>
<text x="998" y="244.00" font-size="12" font-family="Arial" fill="#9467bd">mask1_sabr.csv: D=11.15, pct=100.0</text>
<line x1="963.00" y1="70" x2="963.00" y2="600" stroke="#9467bd" stroke-width="2"/>
<circle cx="963.00" cy="634" r="5" fill="#9467bd"/>
<text x="998" y="266.00" font-size="12" font-family="Arial" fill="#9467bd">mask3_sabr.csv: D=13.10, pct=100.0</text>
<line x1="980.00" y1="70" x2="980.00" y2="600" stroke="#9467bd" stroke-width="2"/>
<circle cx="980.00" cy="634" r="5" fill="#9467bd"/>
<text x="998" y="288.00" font-size="12" font-family="Arial" fill="#9467bd">mask4_sabr.csv: D=13.36, pct=100.0</text>
<text x="535.00" y="660" text-anchor="middle" font-size="14" font-family="Arial">Mahalanobis distance</text>
<text x="22" y="335.00" transform="rotate(-90 22 335.00)" text-anchor="middle" font-size="14" font-family="Arial">Reference window count</text>
</svg>