<svg xmlns="http://www.w3.org/2000/svg" width="1160" height="640" viewBox="0 0 1160 640">
<rect width="100%" height="100%" fill="white"/>
<text x="580" y="35" text-anchor="middle" font-size="22" font-family="Arial">Mahalanobis remake2 distance from real-data feature distribution</text>
<line x1="90" y1="450" x2="1130" y2="450" stroke="#333"/>
<line x1="90" y1="70" x2="90" y2="450" stroke="#333"/>
<line x1="85" y1="450.00" x2="1130" y2="450.00" stroke="#ddd"/>
<text x="80" y="454.00" text-anchor="end" font-size="12" font-family="Arial">0.00</text>
<line x1="85" y1="374.00" x2="1130" y2="374.00" stroke="#ddd"/>
<text x="80" y="378.00" text-anchor="end" font-size="12" font-family="Arial">5.51</text>
<line x1="85" y1="298.00" x2="1130" y2="298.00" stroke="#ddd"/>
<text x="80" y="302.00" text-anchor="end" font-size="12" font-family="Arial">11.01</text>
<line x1="85" y1="222.00" x2="1130" y2="222.00" stroke="#ddd"/>
<text x="80" y="226.00" text-anchor="end" font-size="12" font-family="Arial">16.52</text>
<line x1="85" y1="146.00" x2="1130" y2="146.00" stroke="#ddd"/>
<text x="80" y="150.00" text-anchor="end" font-size="12" font-family="Arial">22.03</text>
<line x1="85" y1="70.00" x2="1130" y2="70.00" stroke="#ddd"/>
<text x="80" y="74.00" text-anchor="end" font-size="12" font-family="Arial">27.53</text>
<rect x="90.00" y="70.00" width="85.45" height="380.00" fill="#2a6fbb"/>
<text x="132.73" y="64.00" text-anchor="middle" font-size="11" font-family="Arial">27.53</text>
<text x="132.73" y="468.00" transform="rotate(45 132.73 468.00)" font-size="12" font-family="Arial">mask8_garch.csv</text>
<rect x="185.45" y="282.38" width="85.45" height="167.62" fill="#2a6fbb"/>
<text x="228.18" y="276.38" text-anchor="middle" font-size="11" font-family="Arial">12.14</text>
<text x="228.18" y="468.00" transform="rotate(45 228.18 468.00)" font-size="12" font-family="Arial">mask10_garch.csv</text>
<rect x="280.91" y="284.83" width="85.45" height="165.17" fill="#2a6fbb"/>
<text x="323.64" y="278.83" text-anchor="middle" font-size="11" font-family="Arial">11.97</text>
<text x="323.64" y="468.00" transform="rotate(45 323.64 468.00)" font-size="12" font-family="Arial">mask3_garch.csv</text>
<rect x="376.36" y="288.38" width="85.45" height="161.62" fill="#2a6fbb"/>
<text x="419.09" y="282.38" text-anchor="middle" font-size="11" font-family="Arial">11.71</text>
<text x="419.09" y="468.00" transform="rotate(45 419.09 468.00)" font-size="12" font-family="Arial">mask6_garch.csv</text>
<rect x="471.82" y="295.67" width="85.45" height="154.33" fill="#2a6fbb"/>
<text x="514.55" y="289.67" text-anchor="middle" font-size="11" font-family="Arial">11.18</text>
<text x="514.55" y="468.00" transform="rotate(45 514.55 468.00)" font-size="12" font-family="Arial">mask7_garch.csv</text>
<rect x="567.27" y="319.21" width="85.45" height="130.79" fill="#2a6fbb"/>
<text x="610.00" y="313.21" text-anchor="middle" font-size="11" font-family="Arial">9.48</text>
<text x="610.00" y="468.00" transform="rotate(45 610.00 468.00)" font-size="12" font-family="Arial">mask5_garch.csv</text>
<rect x="662.73" y="321.23" width="85.45" height="128.77" fill="#2a6fbb"/>
<text x="705.45" y="315.23" text-anchor="middle" font-size="11" font-family="Arial">9.33</text>
<text x="705.45" y="468.00" transform="rotate(45 705.45 468.00)" font-size="12" font-family="Arial">mask2_garch.csv</text>
<rect x="758.18" y="328.03" width="85.45" height="121.97" fill="#2a6fbb"/>
<text x="800.91" y="322.03" text-anchor="middle" font-size="11" font-family="Arial">8.84</text>
<text x="800.91" y="468.00" transform="rotate(45 800.91 468.00)" font-size="12" font-family="Arial">mask1_garch.csv</text>
<rect x="853.64" y="328.35" width="85.45" height="121.65" fill="#2a6fbb"/>
<text x="896.36" y="322.35" text-anchor="middle" font-size="11" font-family="Arial">8.81</text>
<text x="896.36" y="468.00" transform="rotate(45 896.36 468.00)" font-size="12" font-family="Arial">mask9_garch.csv</text>
<rect x="949.09" y="337.11" width="85.45" height="112.89" fill="#2a6fbb"/>
<text x="991.82" y="331.11" text-anchor="middle" font-size="11" font-family="Arial">8.18</text>
<text x="991.82" y="468.00" transform="rotate(45 991.82 468.00)" font-size="12" font-family="Arial">mask4_garch.csv</text>
<rect x="1044.55" y="382.10" width="85.45" height="67.90" fill="#2a6fbb"/>
<text x="1087.27" y="376.10" text-anchor="middle" font-size="11" font-family="Arial">4.92</text>
<text x="1087.27" y="468.00" transform="rotate(45 1087.27 468.00)" font-size="12" font-family="Arial">mask11_garch.csv</text>
<text x="22" y="260.00" transform="rotate(-90 22 260.00)" text-anchor="middle" font-size="14" font-family="Arial">Mahalanobis distance</text>
</svg>