<svg xmlns="http://www.w3.org/2000/svg" width="1260" height="700" viewBox="0 0 1260 700">
<rect width="100%" height="100%" fill="white"/>
<text x="610" y="35" text-anchor="middle" font-size="22" font-family="Arial">GARCH masks in real-window Mahalanobis remake2 distribution</text>
<line x1="90" y1="620" x2="940" y2="620" stroke="#333"/>
<line x1="90" y1="70" x2="90" y2="620" stroke="#333"/>
<line x1="85" y1="620.00" x2="940" y2="620.00" stroke="#ddd"/>
<text x="80" y="624.00" text-anchor="end" font-size="12" font-family="Arial">0</text>
<line x1="85" y1="510.00" x2="940" y2="510.00" stroke="#ddd"/>
<text x="80" y="514.00" text-anchor="end" font-size="12" font-family="Arial">12</text>
<line x1="85" y1="400.00" x2="940" y2="400.00" stroke="#ddd"/>
<text x="80" y="404.00" text-anchor="end" font-size="12" font-family="Arial">24</text>
<line x1="85" y1="290.00" x2="940" y2="290.00" stroke="#ddd"/>
<text x="80" y="294.00" text-anchor="end" font-size="12" font-family="Arial">37</text>
<line x1="85" y1="180.00" x2="940" y2="180.00" stroke="#ddd"/>
<text x="80" y="184.00" text-anchor="end" font-size="12" font-family="Arial">49</text>
<line x1="85" y1="70.00" x2="940" y2="70.00" stroke="#ddd"/>
<text x="80" y="74.00" text-anchor="end" font-size="12" font-family="Arial">61</text>
<rect x="90.00" y="620.00" width="44.22" height="0.00" fill="#d9d9d9" stroke="#999"/>
<rect x="137.22" y="620.00" width="44.22" height="0.00" fill="#d9d9d9" stroke="#999"/>
<rect x="184.44" y="286.39" width="44.22" height="333.61" fill="#d9d9d9" stroke="#999"/>
<rect x="231.67" y="70.00" width="44.22" height="550.00" fill="#d9d9d9" stroke="#999"/>
<rect x="278.89" y="556.89" width="44.22" height="63.11" fill="#d9d9d9" stroke="#999"/>
<rect x="326.11" y="601.97" width="44.22" height="18.03" fill="#d9d9d9" stroke="#999"/>
<rect x="373.33" y="620.00" width="44.22" height="0.00" fill="#d9d9d9" stroke="#999"/>
<rect x="420.56" y="620.00" width="44.22" height="0.00" fill="#d9d9d9" stroke="#999"/>
<rect x="467.78" y="620.00" width="44.22" height="0.00" fill="#d9d9d9" stroke="#999"/>
<rect x="515.00" y="620.00" width="44.22" height="0.00" fill="#d9d9d9" stroke="#999"/>
<rect x="562.22" y="620.00" width="44.22" height="0.00" fill="#d9d9d9" stroke="#999"/>
<rect x="609.44" y="620.00" width="44.22" height="0.00" fill="#d9d9d9" stroke="#999"/>
<rect x="656.67" y="620.00" width="44.22" height="0.00" fill="#d9d9d9" stroke="#999"/>
<rect x="703.89" y="620.00" width="44.22" height="0.00" fill="#d9d9d9" stroke="#999"/>
<rect x="751.11" y="620.00" width="44.22" height="0.00" fill="#d9d9d9" stroke="#999"/>
<rect x="798.33" y="620.00" width="44.22" height="0.00" fill="#d9d9d9" stroke="#999"/>
<rect x="845.56" y="620.00" width="44.22" height="0.00" fill="#d9d9d9" stroke="#999"/>
<rect x="892.78" y="620.00" width="44.22" height="0.00" fill="#d9d9d9" stroke="#999"/>
<line x1="90.00" y1="620" x2="90.00" y2="625" stroke="#333"/>
<text x="90.00" y="642" text-anchor="middle" font-size="12" font-family="Arial">0.0</text>
<line x1="260.00" y1="620" x2="260.00" y2="625" stroke="#333"/>
<text x="260.00" y="642" text-anchor="middle" font-size="12" font-family="Arial">5.5</text>
<line x1="430.00" y1="620" x2="430.00" y2="625" stroke="#333"/>
<text x="430.00" y="642" text-anchor="middle" font-size="12" font-family="Arial">11.0</text>
<line x1="600.00" y1="620" x2="600.00" y2="625" stroke="#333"/>
<text x="600.00" y="642" text-anchor="middle" font-size="12" font-family="Arial">16.5</text>
<line x1="770.00" y1="620" x2="770.00" y2="625" stroke="#333"/>
<text x="770.00" y="642" text-anchor="middle" font-size="12" font-family="Arial">22.0</text>
<line x1="940.00" y1="620" x2="940.00" y2="625" stroke="#333"/>
<text x="940.00" y="642" text-anchor="middle" font-size="12" font-family="Arial">27.5</text>
<line x1="241.89" y1="70" x2="241.89" y2="620" stroke="#2a6fbb" stroke-width="2"/>
<text x="958" y="92.00" font-size="12" font-family="Arial" fill="#2a6fbb">mask11_garch.csv: D=4.92, pct=51.4</text>
<line x1="342.52" y1="70" x2="342.52" y2="620" stroke="#2a6fbb" stroke-width="2"/>
<text x="958" y="116.00" font-size="12" font-family="Arial" fill="#2a6fbb">mask4_garch.csv: D=8.18, pct=99.1</text>
<line x1="362.12" y1="70" x2="362.12" y2="620" stroke="#2a6fbb" stroke-width="2"/>
<text x="958" y="140.00" font-size="12" font-family="Arial" fill="#2a6fbb">mask9_garch.csv: D=8.81, pct=100.0</text>
<line x1="362.82" y1="70" x2="362.82" y2="620" stroke="#2a6fbb" stroke-width="2"/>
<text x="958" y="164.00" font-size="12" font-family="Arial" fill="#2a6fbb">mask1_garch.csv: D=8.84, pct=100.0</text>
<line x1="378.03" y1="70" x2="378.03" y2="620" stroke="#2a6fbb" stroke-width="2"/>
<text x="958" y="188.00" font-size="12" font-family="Arial" fill="#2a6fbb">mask2_garch.csv: D=9.33, pct=100.0</text>
<line x1="382.56" y1="70" x2="382.56" y2="620" stroke="#2a6fbb" stroke-width="2"/>
<text x="958" y="212.00" font-size="12" font-family="Arial" fill="#2a6fbb">mask5_garch.csv: D=9.48, pct=100.0</text>
<line x1="435.21" y1="70" x2="435.21" y2="620" stroke="#2a6fbb" stroke-width="2"/>
<text x="958" y="236.00" font-size="12" font-family="Arial" fill="#2a6fbb">mask7_garch.csv: D=11.18, pct=100.0</text>
<line x1="451.51" y1="70" x2="451.51" y2="620" stroke="#2a6fbb" stroke-width="2"/>
<text x="958" y="260.00" font-size="12" font-family="Arial" fill="#2a6fbb">mask6_garch.csv: D=11.71, pct=100.0</text>
<line x1="459.47" y1="70" x2="459.47" y2="620" stroke="#2a6fbb" stroke-width="2"/>
<text x="958" y="284.00" font-size="12" font-family="Arial" fill="#2a6fbb">mask3_garch.csv: D=11.97, pct=100.0</text>
<line x1="464.95" y1="70" x2="464.95" y2="620" stroke="#2a6fbb" stroke-width="2"/>
<text x="958" y="308.00" font-size="12" font-family="Arial" fill="#2a6fbb">mask10_garch.csv: D=12.14, pct=100.0</text>
<line x1="940.00" y1="70" x2="940.00" y2="620" stroke="#2a6fbb" stroke-width="2"/>
<text x="958" y="332.00" font-size="12" font-family="Arial" fill="#2a6fbb">mask8_garch.csv: D=27.53, pct=100.0</text>
<text x="515.00" y="680" text-anchor="middle" font-size="14" font-family="Arial">Mahalanobis distance</text>
<text x="22" y="345.00" transform="rotate(-90 22 345.00)" text-anchor="middle" font-size="14" font-family="Arial">Reference window count</text>
</svg>